{"title":"Elvis, Charro 1969 DVDrip English Klam","uid":6204149,"size":1368755217,"categoryP":"video","categoryS":"movies","magnet":"?xt=urn:btih:dc9e9fa840c9d95b9c1b8630d871ab94840f6eb5&amp;dn=Elvis%2C+Charro+1969+DVDrip+English+Klam&amp;tr=udp%3A%2F%2Ftracker.openbittorrent.com%3A80&amp;tr=udp%3A%2F%2Fopen.demonii.com%3A1337&amp;tr=udp%3A%2F%2Ftracker.coppersurfer.tk%3A6969&amp;tr=udp%3A%2F%2Fexodus.desync.com%3A6969","seeders":1,"leechers":0,"uploader":"Klambake","files":-1,"time":1298729322,"description":"With: Elvis Presley, Ina Balin and Victor French\n\nJess Wade is innocently accused of having stolen a cannon from the Mexican revolutionary forces. He tries to find the real culprits, a gang of criminals.\n\nGeneral:\n\nComplete name                    : Elvis Charro\\Elvis Charro.avi\nFormat                           : AVI\nFormat/Info                      : Audio Video Interleave\nFile size                        : 1.27 GiB\nDuration                         : 1h 34mn\nOverall bit rate                 : 1 938 Kbps\n\nVideo:\n\nFormat                           : MPEG-4 Visual\nFormat profile                   : Simple@L3\nFormat settings, BVOP            : No\nFormat settings, QPel            : No\nFormat settings, GMC             : No warppoints\nFormat settings, Matrix          : Default (H.263)\nCodec ID                         : XVID\nCodec ID/Hint                    : XviD\nDuration                         : 1h 34mn\nBit rate                         : 1 735 Kbps\nWidth                            : 704 pixels\nHeight                           : 396 pixels\nDisplay aspect ratio             : 16:9\nFrame rate                       : 25.000 fps\nColor space                      : YUV\nChroma subsampling               : 4:2:0\nBit depth                        : 8 bits\nScan type                        : Progressive\nBits/(Pixel*Frame)               : 0.249\nStream size                      : 1.14 GiB (90%)\nWriting library                  : XviD 1.1.2 (UTC 2006-11-01)\n\nAudio:\n\nFormat                           : AC-3\nFormat/Info                      : Audio Coding 3\nMode extension                   : CM (complete main)\nCodec ID                         : 2000\nDuration                         : 1h 34mn\nBit rate mode                    : Constant\nBit rate                         : 192 Kbps\nChannel(s)                       : 1 channel\nChannel positions                : Front: C\nSampling rate                    : 48.0 KHz\nBit depth                        : 16 bits\nStream size                      : 129 MiB (10%)\nAlignment                        : Aligned on interleaves\nInterleave, duration             : 32 ms (0.80 video frame)\nInterleave, preload duration     : 2080 ms\n\n\n","torrent":{"xt":"urn:btih:dc9e9fa840c9d95b9c1b8630d871ab94840f6eb5","amp;dn":"Elvis%2C+Charro+1969+DVDrip+English+Klam","amp;tr":["udp%3A%2F%2Ftracker.openbittorrent.com%3A80","udp%3A%2F%2Fopen.demonii.com%3A1337","udp%3A%2F%2Ftracker.coppersurfer.tk%3A6969","udp%3A%2F%2Fexodus.desync.com%3A6969"],"infoHash":"dc9e9fa840c9d95b9c1b8630d871ab94840f6eb5","infoHashBuffer":{"type":"Buffer","data":[220,158,159,168,64,201,217,91,156,27,134,48,216,113,171,148,132,15,110,181]},"announce":[],"urlList":[]}}